<?xml version="1.0" encoding="UTF-8" standalone="no"?>
<!-- Created with Inkscape (http://www.inkscape.org/) -->

<svg
   width="1536"
   height="512"
   viewBox="0 0 1536 512"
   version="1.1"
   id="svg1"
   inkscape:version="1.3 (0e150ed6c4, 2023-07-21)"
   sodipodi:docname="Gaffer.svg"
   xmlns:inkscape="http://www.inkscape.org/namespaces/inkscape"
   xmlns:sodipodi="http://sodipodi.sourceforge.net/DTD/sodipodi-0.dtd"
   xmlns:xlink="http://www.w3.org/1999/xlink"
   xmlns="http://www.w3.org/2000/svg"
   xmlns:svg="http://www.w3.org/2000/svg">
  <sodipodi:namedview
     id="namedview1"
     pagecolor="#505050"
     bordercolor="#eeeeee"
     borderopacity="1"
     inkscape:showpageshadow="0"
     inkscape:pageopacity="0"
     inkscape:pagecheckerboard="0"
     inkscape:deskcolor="#505050"
     inkscape:document-units="px"
     inkscape:zoom="0.35355339"
     inkscape:cx="670.33723"
     inkscape:cy="465.27626"
     inkscape:window-width="1366"
     inkscape:window-height="699"
     inkscape:window-x="0"
     inkscape:window-y="0"
     inkscape:window-maximized="1"
     inkscape:current-layer="layer1" />
  <defs
     id="defs1">
    <linearGradient
       id="linearGradient2227"
       inkscape:collect="always">
      <stop
         style="stop-color:#ed4c56;stop-opacity:1;"
         offset="0"
         id="stop2227" />
      <stop
         style="stop-color:#8e2e34;stop-opacity:1;"
         offset="1"
         id="stop2228" />
    </linearGradient>
    <rect
       x="357.93103"
       y="180.05273"
       width="133.63895"
       height="136.10953"
       id="rect58" />
    <inkscape:path-effect
       effect="powerstroke"
       id="path-effect7"
       is_visible="true"
       lpeversion="1.3"
       scale_width="1"
       interpolator_type="CentripetalCatmullRom"
       interpolator_beta="0.2"
       start_linecap_type="zerowidth"
       end_linecap_type="zerowidth"
       offset_points="0.49286723,3.8578874 | 1.4567198,24.765743 | 3,4.9884667"
       linejoin_type="round"
       miter_limit="4"
       not_jump="false"
       sort_points="true"
       message="&lt;b&gt;Ctrl + click&lt;/b&gt; on existing node and move it" />
    <inkscape:path-effect
       effect="powerstroke"
       id="path-effect5"
       is_visible="true"
       lpeversion="1.3"
       scale_width="1"
       interpolator_type="CentripetalCatmullRom"
       interpolator_beta="0.2"
       start_linecap_type="zerowidth"
       end_linecap_type="zerowidth"
       offset_points="0.49286723,3.8578874 | 1.4567198,24.765743 | 3,4.9884667"
       linejoin_type="round"
       miter_limit="4"
       not_jump="false"
       sort_points="true"
       message="&lt;b&gt;Ctrl + click&lt;/b&gt; on existing node and move it" />
    <linearGradient
       inkscape:collect="always"
       xlink:href="#linearGradient2227"
       id="linearGradient2244"
       x1="252.60257"
       y1="-5.5353236"
       x2="252.60257"
       y2="536.04742"
       gradientUnits="userSpaceOnUse"
       gradientTransform="matrix(2.9999997,0,0,1,0,3e-5)" />
  </defs>
  <g
     inkscape:label="Layer 1"
     inkscape:groupmode="layer"
     id="layer1">
    <rect
       style="fill:url(#linearGradient2244);stroke:none;stroke-width:14.4915;stroke-linecap:round;stroke-linejoin:round;stroke-dasharray:none;stroke-opacity:1;paint-order:normal"
       id="rect2226"
       width="1536"
       height="512"
       x="2.0275878e-07"
       y="1.09375e-06"
       rx="0"
       ry="0" />
    <path
       id="path573"
       style="fill:#000000;fill-opacity:1;stroke:none;stroke-width:7.36694;stroke-linecap:round;stroke-linejoin:round;stroke-dasharray:none;stroke-opacity:1"
       d="m 169.25623,66.53924 a 15.845404,15.845404 0 0 0 -4.1094,0.47852 15.845404,15.845404 0 0 0 -1.9121,0.9082 l 16.3223,28.26953 c 0.8278,-1.71374 1.8101,-3.57895 3.0684,-5.68554 a 15.845404,15.845404 0 0 0 1.1601,-2.41016 l -12.2539,-21.22656 a 15.845404,15.845404 0 0 0 -2.2754,-0.33399 z m 54.5801,0 a 15.845404,15.845404 0 0 0 -0.3047,0.0352 l 13.7402,23.80078 a 15.845404,15.845404 0 0 0 -5.5449,-21.59375 15.845404,15.845404 0 0 0 -7.8906,-2.24219 z m 49.7891,0.80078 a 15.845404,15.845404 0 0 0 -3.459,1.64258 l 17.3418,30.03516 c 0.5207,-1.27935 1.1691,-2.67596 1.9648,-4.22852 z m 12.2812,1.26954 8.0742,13.98437 a 15.845404,15.845404 0 0 0 -7.6758,-13.8125 15.845404,15.845404 0 0 0 -0.3984,-0.17187 z m -71.9902,1.31054 a 15.845404,15.845404 0 0 0 -3.3516,3.71094 l 20.2148,35.01563 c -0.021,-0.36024 -0.0578,-0.69414 -0.0507,-1.10743 0.0241,-1.42096 0.3185,-3.46739 1.2793,-6.2832 z m -58.5332,4.4043 c -1.6632,2.78848 -3.0977,5.48986 -4.377,8.14062 l 38.9609,67.47852 c 1.0236,-7.24679 -0.1111,-14.3245 -2.291,-19.6875 l -7.5488,-13.07226 c -0.519,-0.75259 -1.2037,-1.70806 -1.5937,-2.35547 -0.8649,-1.43546 -1.3883,-2.45555 -1.7618,-3.45703 z m 107.789,2.54492 c -2.2708,4.03812 -4.2295,7.96246 -5.6738,11.72461 l 39.7617,68.86914 c 0.1649,-0.48467 0.346,-0.94096 0.5059,-1.43359 1.8456,-5.68657 2.0972,-11.55466 1.3867,-16.8418 z m -58.2539,6.98438 c -2.072,4.49125 -3.5753,8.80121 -4.5449,12.97461 l 39.4043,68.25 c 1.2154,-2.85826 2.3733,-5.85425 3.4101,-9.04883 0.4398,-1.35507 0.7731,-2.721 1.043,-4.08789 z m -58.5312,10.61132 c -1.1979,4.30859 -1.8547,8.47466 -1.9239,12.53321 -0.0527,3.09422 0.2913,6.0173 0.8496,8.77734 l 34.6407,60 c 2.1296,-3.79942 4.1875,-8.02567 6.0605,-12.67969 z m 107.5644,7.98243 c -0.179,1.53034 -0.3064,3.05031 -0.332,4.55078 -0.1249,7.3237 1.8173,13.77888 4.1914,18.95117 l 5.6543,9.79492 c 1.9086,2.9094 3.5029,5.26032 4.0605,6.47656 0.4363,0.9516 0.666,1.27623 0.6817,1.73438 l 19.6035,33.95508 c 1.5934,-2.69105 3.1364,-5.61107 4.6406,-8.77539 z m -53.9902,13.66797 c 1.2751,6.0552 3.6893,11.22327 6.0058,15.06836 3.4099,5.65979 6.1513,9.22871 6.9805,11.0371 0.8291,1.8085 1.0364,1.13365 0.0977,4.02735 -0.5677,1.74916 -1.1872,3.26907 -1.7949,4.84179 l 18.6269,32.26172 c 1.5272,-2.26735 3.0667,-4.7607 4.5898,-7.4707 z m -44.2793,37.62109 c -1.1985,2.8431 -2.4334,5.27054 -3.666,7.50586 l 17.3437,30.04297 c 1.4415,-1.74843 2.9491,-3.74147 4.543,-5.99219 z m 108.0234,2.41992 c -0.847,1.83839 -1.6896,3.56023 -2.5449,5.10938 l 17.3399,30.03711 c 1.0183,-1.23463 2.0504,-2.57063 3.1542,-4.05664 z m -57.625,5.97852 c -1.6933,2.96704 -3.3346,5.45164 -4.8183,7.37304 l 16.5117,28.60157 c 1.4227,-1.37379 3.1567,-3.23698 5.5586,-6.09375 z m -60.2383,8.41406 c -1.101,1.35037 -2.0926,2.473 -2.875,3.25781 l 15.9161,27.56641 a 15.845404,15.845404 0 0 0 1.8476,-0.95703 c 0,0 0.9955,-0.94907 1.5274,-1.43164 z m 109.1407,0.0156 c -2.8364,3.47422 -4.8907,5.10352 -4.8907,5.10352 a 15.845404,15.845404 0 0 0 -2.4921,2.96094 l 14.3437,24.84375 a 15.845404,15.845404 0 0 0 7.9434,-3.05664 c 0,0 0.9904,-0.94355 1.5117,-1.41602 z m -60.7989,6.6836 a 15.845404,15.845404 0 0 0 -1.1445,20.6914 15.845404,15.845404 0 0 0 16.1934,5.37305 z m -57.8418,5.08398 a 15.845404,15.845404 0 0 0 2.1172,15.60742 15.845404,15.845404 0 0 0 10.1953,5.71485 z m 80.9219,39.1836 a 132.84318,44.281065 0 0 0 -10.7754,0.21875 l 115.0274,199.23439 c 2.8265,-2.9688 5.4873,-6.0909 7.9785,-9.3555 L 219.76993,221.56659 a 132.84318,44.281065 0 0 0 -2.5059,-0.0508 z m 14.1895,0.28711 112.8457,195.45313 c 3.7433,1.8833 7.665,3.4462 11.75,4.6328 L 240.81683,222.30096 a 132.84318,44.281065 0 0 0 -7.543,-0.46094 132.84318,44.281065 0 0 0 -1.8203,-0.0371 z m -36.2383,0.40625 a 132.84318,44.281065 0 0 0 -7.7285,0.4707 l 121.1875,209.90428 c 1.8564,-1.4297 3.6661,-2.9183 5.4277,-4.459 z m 57.668,0.99218 116.1484,201.1738 c 2.0444,0.1838 4.1132,0.2793 6.2031,0.2793 0.9373,0 1.8488,-0.1052 2.7774,-0.1426 l -20.8711,-36.1503 c -4.0454,-2.1948 -7.6603,-5.0618 -10.627,-8.5254 0.7297,-2.1378 1.3328,-4.332 1.9375,-6.5254 l -86.0976,-149.12502 a 132.84318,44.281065 0 0 0 -9.4707,-0.98438 z m -76.3379,0.5293 a 132.84318,44.281065 0 0 0 -4.4844,0.4668 l 124.8691,216.2793 c 1.1866,-0.6957 2.3479,-1.4267 3.5059,-2.1641 z m -15.1582,1.97852 a 132.84318,44.281065 0 0 0 -5.8575,0.8789 132.84318,44.281065 0 0 0 -3.2402,0.65235 l 127.7891,221.33783 c 2.7243,-1.035 5.3769,-2.2061 7.9941,-3.4414 z m 113.5507,0.26953 76.5215,132.53909 c 0.6808,-5.0045 1.1231,-10.08713 1.1231,-15.28523 v -3.6191 l -64.1602,-111.1289 a 132.84318,44.281065 0 0 0 -9.4218,-1.89649 132.84318,44.281065 0 0 0 -4.0626,-0.60937 z m -132.9941,3.34375 a 132.84318,44.281065 0 0 0 -0.1406,0.0293 132.84318,44.281065 0 0 0 -8.043,2.10157 l 128.3184,222.25393 c 2.7983,-0.5551 5.5513,-1.2253 8.2695,-1.9825 z m 159.9004,2.41211 52.9746,91.7539 c 1.3341,-0.85673 2.7046,-1.64654 4.1484,-2.33398 l -50.498,-87.46485 a 132.84318,44.281065 0 0 0 -3.1172,-1.03906 132.84318,44.281065 0 0 0 -3.5078,-0.91601 z m -177.9277,2.66992 a 132.84318,44.281065 0 0 0 -6.084,2.0293 132.84318,44.281065 0 0 0 -5.5254,2.35156 l 125.3574,217.12301 h 2.2402 c 3.9009,0 7.7392,-0.2434 11.5352,-0.6269 z m 199.2793,4.79492 29.0312,50.2832 c -0.4815,-6.45046 -1.4658,-12.75672 -2.9746,-18.85547 -0.5407,-2.18575 -1.2486,-4.29856 -1.916,-6.42968 l -9.8438,-17.05078 a 132.84318,44.281065 0 0 0 -2.6015,-1.92774 132.84318,44.281065 0 0 0 -8.3008,-4.57617 132.84318,44.281065 0 0 0 -3.3945,-1.44336 z m -219.8887,3.99609 a 132.84318,44.281065 0 0 0 -2.3008,1.26953 l 122.0781,211.44333 h 3.0332 z m -10.464899,7.12891 a 132.84318,44.281065 0 0 0 -0.7773,0.83008 c -1.9822,4.35657 -3.5928,8.90595 -5.0195,13.53906 L 197.44373,455.90833 h 14.0938 z m -9.2265,28.42773 c -0.533,3.11084 -0.925,6.26898 -1.1992,9.46289 l 96.154299,166.54493 c 2.3437,0.3317 4.7147,0.5793 7.1035,0.7656 z m 291.619099,6.97266 c -1.2885,0 -2.5545,0.0951 -3.8261,0.16602 l 20.3906,35.31836 c 12.6043,6.08248 21.207,18.90329 21.207,33.98052 0,0.8561 -0.0705,1.6922 -0.125,2.5332 l 20.4219,35.37106 c 2.3137,-3.5232 4.3405,-7.249 5.9922,-11.1719 l -55.1699,-95.55468 c -2.9197,-0.37899 -5.8729,-0.64258 -8.8907,-0.64258 z m -14.5351,1.61719 c -2.8507,0.61812 -5.6581,1.35745 -8.3711,2.31445 l 16.3613,28.33985 c 2.1244,-0.36735 4.305,-0.58008 6.5449,-0.58008 0.9842,0 1.9481,0.0727 2.9121,0.14453 z m 36.7656,2.12695 45.8516,79.41792 c 0.401,-1.9808 0.6989,-3.995 0.9257,-6.0312 l -41.0976,-71.18555 c -1.8506,-0.82059 -3.75,-1.54231 -5.6797,-2.20117 z m 24.2148,14.30664 21.5704,37.36129 c -3.0506,-14.66967 -10.8217,-27.63409 -21.5704,-37.36129 z m -339.730399,3.63086 v 18.10938 l 70.611299,122.30074 c 4.1943,1.68 8.5083,3.1268 12.9375,4.3008 z m 0.3515,44.34573 c 2.6186,35.30399 21.340199,65.97509 48.912099,84.71869 z m 327.011699,19.79099 c -1.3705,2.8864 -3.0671,5.5783 -5.0917,7.9941 l 15.8066,27.3789 -2.9531,1.7051 0.7285,1.2617 c 3.1953,-2.4969 6.1526,-5.2679 8.8691,-8.2734 z m -12.6718,14.8652 c -1.3065,0.8916 -2.6831,1.6841 -4.1035,2.4082 l 14.7089,25.4785 -1.1855,0.6856 1.0449,1.8105 c 0.8056,-0.4202 1.5979,-0.856 2.3848,-1.3066 l -1.0762,-1.8633 2.9531,-1.7051 z m -13.7012,5.7852 c -2.484,0.5036 -5.0599,0.7695 -7.7051,0.7695 -1.3589,0 -2.6965,-0.084 -4.0156,-0.2207 l 17.6328,30.543 c 3.0865,-0.6213 6.0747,-1.5003 9.002,-2.5195 l -0.4532,-0.7852 1.1856,-0.6856 z" />
    <path
       id="rect8"
       style="fill:#ffffff;fill-opacity:1;stroke:#000000;stroke-width:7.36694;stroke-linecap:round;stroke-linejoin:round;stroke-dasharray:none;stroke-opacity:1"
       d="m 197.17795,207.15513 a 132.84318,44.281065 0 0 0 -16.00907,0.32374 132.84318,44.281065 0 0 0 -15.78066,0.96225 132.84318,44.281065 0 0 0 -15.31662,1.59172 132.84318,44.281065 0 0 0 -14.62777,2.19425 132.84318,44.281065 0 0 0 -13.72668,2.7644 132.84318,44.281065 0 0 0 -12.62776,3.29858 132.84318,44.281065 0 0 0 -11.343582,3.7824 132.84318,44.281065 0 0 0 -9.892138,4.20865 132.84318,44.281065 0 0 0 -8.302203,4.57737 132.84318,44.281065 0 0 0 -6.580965,4.87592 132.84318,44.281065 0 0 0 -0.991012,1.05936 c -2.825191,6.20921 -5.115693,12.71435 -6.787803,19.47311 -2.163744,8.74586 -3.327354,17.89441 -3.327355,27.32748 v 45.27719 c 0,62.42368 50.253178,112.67678 112.676828,112.67678 h 45.27719 c 37.82591,0 71.16041,-18.47 91.576,-46.9013 11.97048,9.7641 27.2119,15.6458 43.75382,15.6458 38.17579,0 69.46256,-31.2886 69.46256,-69.46437 0,-38.17579 -31.28677,-69.46438 -69.46256,-69.46438 -8.04589,0 -15.77834,1.40385 -22.98394,3.95506 -0.47578,-6.52007 -1.47378,-12.89053 -2.99822,-19.05226 -1.6718,-6.75753 -3.96152,-13.26131 -6.78599,-19.46952 a 132.84318,44.281065 0 0 0 -0.99282,-1.06295 132.84318,44.281065 0 0 0 -6.58097,-4.87592 132.84318,44.281065 0 0 0 -8.3022,-4.57737 132.84318,44.281065 0 0 0 -9.89214,-4.20865 132.84318,44.281065 0 0 0 -11.34537,-3.7824 132.84318,44.281065 0 0 0 -12.62596,-3.29858 132.84318,44.281065 0 0 0 -13.72669,-2.7644 132.84318,44.281065 0 0 0 -14.62956,-2.19425 132.84318,44.281065 0 0 0 -15.31483,-1.59172 132.84318,44.281065 0 0 0 -15.78066,-0.96225 132.84318,44.281065 0 0 0 -16.01087,-0.32374 z m 157.97022,95.89976 c 21.04885,0 37.77176,16.72473 37.77176,37.77357 0,21.04884 -16.72291,37.77357 -37.77176,37.77357 -11.57482,0 -21.82193,-5.0749 -28.71958,-13.1278 3.91543,-11.47154 6.06838,-23.77222 6.06838,-36.60268 v -18.33461 c 6.29214,-4.68836 14.10081,-7.48205 22.6512,-7.48205 z" />
    <path
       id="path11"
       style="color:#000000;fill:#ffffff;stroke:#000000;stroke-width:7.36694;stroke-linecap:round;stroke-linejoin:round;stroke-dasharray:none;stroke-opacity:1"
       d="m 149.17053,52.17774 a 15.845404,15.845404 0 0 0 -4.10973,0.47842 15.845404,15.845404 0 0 0 -9.72848,7.24104 c -7.18629,12.03121 -10.78381,22.69166 -10.95508,32.73938 -0.17132,10.04774 3.51644,18.52562 6.92628,24.18538 3.40987,5.65972 6.1511,9.22936 6.98026,11.03781 0.82913,1.80847 1.0345,1.13321 0.0953,4.027 -6.96733,21.46728 -17.52526,29.42101 -17.52526,29.42101 a 15.845404,15.845404 0 0 0 -2.48024,22.27169 15.845404,15.845404 0 0 0 22.27169,2.47664 c 0,0 18.41109,-15.21862 27.87785,-44.38692 3.16932,-9.76511 1.73009,-20.11806 -1.43347,-27.01813 -3.16353,-6.90004 -6.76291,-11.06435 -8.64213,-14.18351 -1.87921,-3.11916 -2.43122,-4.46726 -2.38311,-7.28961 0.0481,-2.82233 1.12852,-8.07808 6.47486,-17.02886 a 15.845404,15.845404 0 0 0 -5.47665,-21.72852 15.845404,15.845404 0 0 0 -7.89211,-2.24282 z m 54.5794,0 a 15.845404,15.845404 0 0 0 -4.10974,0.47842 15.845404,15.845404 0 0 0 -9.72846,7.24104 c -7.18629,12.03121 -10.78382,22.69166 -10.9551,32.73938 -0.1713,10.04774 3.51466,18.52562 6.9245,24.18538 3.40986,5.65972 6.15109,9.22936 6.98025,11.03781 0.82914,1.80847 1.03631,1.13321 0.0972,4.027 -6.96732,21.46728 -17.53066,29.42101 -17.53066,29.42101 a 15.845404,15.845404 0 0 0 -2.47483,22.27169 15.845404,15.845404 0 0 0 22.27169,2.47664 c 0,0 18.41109,-15.21862 27.87783,-44.38692 3.16934,-9.76511 1.7283,-20.11806 -1.43525,-27.01813 -3.16354,-6.90004 -6.76113,-11.06435 -8.64033,-14.18351 -1.87921,-3.11916 -2.43122,-4.46726 -2.38311,-7.28961 0.0481,-2.82233 1.12851,-8.07808 6.47486,-17.02886 A 15.845404,15.845404 0 0 0 211.64034,54.42056 15.845404,15.845404 0 0 0 203.75,52.17774 Z m 54.57761,0 a 15.845404,15.845404 0 0 0 -4.10973,0.47842 15.845404,15.845404 0 0 0 -9.72669,7.24104 c -7.18628,12.03121 -10.7856,22.69166 -10.95686,32.73938 -0.17132,10.04774 3.51645,18.52562 6.92628,24.18538 3.40987,5.65972 6.1511,9.22936 6.98025,11.03781 0.82914,1.80847 1.03629,1.13321 0.0971,4.027 -6.96732,21.46728 -17.53067,29.42101 -17.53067,29.42101 a 15.845404,15.845404 0 0 0 -2.47662,22.27169 15.845404,15.845404 0 0 0 22.27168,2.47664 c 0,0 18.41109,-15.21862 27.87785,-44.38692 3.16932,-9.76511 1.73009,-20.11806 -1.43347,-27.01813 -3.16353,-6.90004 -6.76292,-11.06435 -8.64212,-14.18351 -1.87922,-3.11916 -2.43123,-4.46726 -2.38312,-7.28961 0.0481,-2.82233 1.13031,-8.07808 6.47665,-17.02886 a 15.845404,15.845404 0 0 0 -5.47844,-21.72852 15.845404,15.845404 0 0 0 -7.89213,-2.24282 z" />
    <ellipse
       style="fill:#999999;fill-opacity:1;stroke:#000000;stroke-width:7.36694;stroke-linecap:round;stroke-linejoin:round;stroke-dasharray:none;stroke-opacity:1"
       id="path7"
       cx="197.17981"
       cy="264.88074"
       rx="121.06361"
       ry="40.354534" />
    <path
       id="path3"
       style="font-weight:800;font-size:293.409px;font-family:Cantarell;-inkscape-font-specification:'Cantarell Ultra-Bold';letter-spacing:0px;fill:#000000;stroke-width:1.52817"
       d="m 1042.0767,96.77393 c -2.5224,0 -4.9803,0.12742 -7.3886,0.34961 l 24.416,42.28906 c 3.7984,0.70205 7.2188,1.6962 9.3183,2.81446 l -26.2402,-45.44727 c -0.036,-5e-5 -0.07,-0.006 -0.1055,-0.006 z m 121.2149,0.13086 24.9199,43.16406 4.5098,-16.31445 -14.4551,-25.03516 c -4.7946,-1.04425 -9.8225,-1.68056 -14.9746,-1.81445 z m -10.3594,0.33594 c -1.958,0.20391 -3.8931,0.4513 -5.7695,0.79883 l 23.3906,40.51562 c 2.2255,0.0972 4.4464,0.33217 6.6328,0.69531 z m -99.7344,0.34765 18.6856,32.36329 2.6074,-9.4336 -12.2207,-21.16992 c -2.9072,-0.76395 -5.958,-1.33058 -9.0723,-1.75977 z m -28.1387,1.13282 c -2.7441,0.63517 -5.4086,1.39802 -7.9531,2.33984 l 22.3887,38.7793 c 2.5,-0.7956 5.3882,-1.20403 8.5488,-1.31055 z m 112.9532,1.74414 c -2.0564,0.69259 -4.0477,1.47739 -5.9727,2.35742 l 22.4277,38.84766 c 1.7493,-0.99986 3.7884,-1.73009 6.0235,-2.26758 z m 53.1836,2.37695 4.9394,8.55664 1.4473,-5.23437 c -1.9155,-1.23581 -4.1192,-2.30552 -6.3867,-3.32227 z m -115.1739,2.05469 1.8848,3.26562 0.5527,-1.99804 c -0.731,-0.47162 -1.6517,-0.82688 -2.4375,-1.26758 z m -67.25,0.008 c -1.6014,0.89014 -3.1553,1.8373 -4.6465,2.86328 l 24.0939,41.73242 c 0.8301,-1.89275 2.0096,-3.529 3.4355,-4.96289 z m 115.2442,2.29883 c -1.9757,1.31077 -3.8261,2.76535 -5.6055,4.30078 l 27.2383,47.17774 v -0.58399 c 0,-3.6734 0.815,-6.83968 2.2285,-9.56445 z m -419.94728,2.77539 c -2.4082,0 -4.7093,0.17371 -7.0586,0.26953 l 26.6231,46.11328 c 3.0002,0.37309 5.9165,0.76918 8.8261,1.27344 l -27.4882,-47.61133 c -0.3024,-0.002 -0.6,-0.0449 -0.9024,-0.0449 z m 11.7656,0.58594 28.6328,49.5957 c 3.2401,0.82197 6.4287,1.67125 9.1875,2.63086 l 0.9747,-2.75977 -27.9395,-48.39062 c -3.5948,-0.47313 -7.1861,-0.8269 -10.8555,-1.07617 z m -28.9687,0.38867 c -2.1348,0.22021 -4.2647,0.44611 -6.3438,0.74805 l 24.9961,43.29297 c 2.2851,0.045 4.6043,0.15412 6.9492,0.30078 z m 51.3887,2.43945 20.3769,35.29688 2.4707,-6.99805 -15.1933,-26.31641 c -2.5554,-0.66151 -5,-1.44161 -7.6543,-1.98242 z m -67.2715,0.0664 c -3.5822,0.76934 -7.0618,1.66707 -10.4512,2.6875 l 23.3262,40.40234 c 3.5399,-0.66628 7.2302,-1.18263 11.1738,-1.43945 z m 325.9765,0.16992 c -2.1098,2.04036 -4.0543,4.24703 -5.832,6.61328 l 53.19338,92.13477 h 9.6523 l -22.869,-39.60938 h -4.5782 v -7.92969 z m 114.81448,4.65234 c -1.7334,2.10732 -3.315,4.35366 -4.752,6.72852 l 50.4395,87.36719 h 8.6387 z m -353.14258,0.85938 6.4727,11.21094 2.6347,-7.46289 c -2.867,-1.36062 -5.9451,-2.58591 -9.1074,-3.74805 z m -106.9199,0.004 c -1.2132,0.46717 -2.4117,0.95008 -3.5957,1.45117 l 22.8652,39.60351 c 1.1925,-0.47446 2.3968,-0.93833 3.6543,-1.34961 z m -11.8809,5.37304 c -2.1111,1.10275 -4.2142,2.21108 -6.2148,3.42969 l 23.373,40.48242 c 1.7993,-1.50771 3.7308,-2.89293 5.7969,-4.15234 z m 345.8125,4.49805 c -1.3954,2.7695 -2.5479,5.72766 -3.5527,8.79102 l 44.43558,76.96484 v -2.39453 h 7.246 z m -359.666,3.97656 c -2.3196,1.7116 -4.4891,3.56378 -6.625,5.44531 l 25.9492,44.94336 c 1.4348,-2.93116 3.1524,-5.61544 5.0879,-8.10547 z m 476.19528,1.89453 c -1.2316,3.23574 -2.1679,6.68215 -2.9179,10.24805 l 46.3945,80.35742 v -13.11523 h 1.2637 z m -489.56438,10.14258 c -0.9662,1.03526 -1.942,2.0596 -2.8594,3.13477 l 30.3652,52.5957 c 0.3074,-2.08891 0.6994,-4.10701 1.1719,-6.05859 z m 366.541,5.95703 c -0.4429,3.43346 -0.7422,6.95218 -0.7422,10.63086 v 8.52539 l 48.11918,83.34571 v -20.44141 z m -375.4336,5.00782 c -2.3138,3.3657 -4.3591,6.92475 -6.2422,10.5957 l 88.0996,152.5957 c 2.3415,0.11478 4.6525,0.28711 7.0547,0.28711 1.8183,0 3.567,-0.14361 5.3555,-0.20508 l -29.1211,-50.43581 c -17.598,-9.00051 -28.2004,-26.82237 -29.4551,-51.01954 z m 493.86128,4.50585 c 0,0.37814 -0.047,0.73653 -0.047,1.11719 v 11.15039 h -0.9257 l 49.0449,84.94922 v -13.95117 z m -233.01168,9.33399 c -0.2261,0 -0.4553,0.0185 -0.6816,0.0195 l 71.6855,124.16406 v -12.92797 l -64.1055,-111.03516 c -2.2549,-0.11939 -4.5264,-0.2207 -6.8984,-0.2207 z m 409.59768,0 c -4.186,0 -8.1937,0.33836 -12.1094,0.83398 l 50.8457,88.06836 h 14.793 l -51.2793,-88.8164 c -0.7582,-0.0173 -1.4798,-0.0859 -2.25,-0.0859 z m -420.57428,0.46289 c -1.8793,0.13988 -3.7594,0.272 -5.6367,0.48047 l 24.4317,42.3164 c 4.3727,1.60662 7.6398,3.96846 9.9199,6.93946 z m 433.89648,0.52539 49.9473,86.51172 c 0.3244,-2.09891 0.5834,-4.2076 0.8398,-6.31641 l -45.7539,-79.24804 c -1.6457,-0.35803 -3.3099,-0.69119 -5.0332,-0.94727 z m -404.79878,0.39648 52.8828,91.59571 v -16.4043 l -42.0019,-72.75 c -3.4231,-1.01489 -7.0452,-1.83405 -10.8809,-2.44141 z m 573.78518,0.45118 16.1425,27.96093 5.7617,-23.34179 c -5.5171,-2.75863 -13.6383,-4.42308 -21.9042,-4.61914 z m -618.15428,0.69336 c -2.9135,0.50583 -5.8232,0.94191 -8.6758,1.60156 l 21.0801,36.51172 c 0.9868,-0.0314 2.0134,-0.15235 2.9863,-0.15235 2.3591,0 4.5788,0.1108 6.6992,0.29688 z m 414.18548,0.0391 c -1.7618,0.42881 -3.4788,0.92043 -5.1699,1.45508 l 19.3867,33.58007 c 1.2509,-0.20592 2.5451,-0.34179 3.9219,-0.34179 0.7003,0 1.3196,0.12034 1.9883,0.16797 z m 193.8457,0.0117 c -1.796,0.30998 -3.5699,0.69326 -5.3144,1.19336 l 26.621,46.10937 1.7989,-7.2832 z m -482.31838,0.35351 62.49618,108.24414 v -9.25195 l -57.15438,-98.99219 z m 77.62308,0 22.8691,39.60938 h 0.1465 v -10.65625 l -16.7148,-28.95313 z m 16.8516,0 6.164,10.67578 v -10.67578 z m 19.8574,0 67.2871,116.54492 v -13.32421 l -59.5957,-103.22071 z m 75.4199,0 22.8672,39.60938 h 7.1445 v -1.63672 l -21.9238,-37.97266 z m 18.6406,0 11.3711,19.69727 V 179.7625 l -4.039,-6.99414 z m 194.752,0 v 8.14258 l 50.7597,87.91797 v -9.59375 l -49.9218,-86.4668 z m 11.3887,0 39.371,68.19336 v -8.88476 c 0.9944,-1.06867 2.1182,-1.9017 3.1817,-2.84766 l -32.5977,-56.46094 z m 20.5039,0 11.7734,20.39063 -4.0566,-20.39063 z m -93.5645,3.2168 33.7227,58.4082 c -0.5541,-28.63486 -12.5702,-48.90259 -33.7227,-58.4082 z m -349.98238,0.31836 v 15.06055 l 12.1328,21.01367 h 8.6953 z m -134.9688,0.19141 c -3.2279,0.9594 -6.4584,1.88602 -9.5156,3.0332 l 19.3926,33.5918 c 3.4817,-0.76564 6.8903,-1.36844 10.2265,-1.80665 z m -227.6445,0.4626 c -1.0798,2.87246 -2.0657,5.79874 -2.9004,8.8164 l 75.5918,130.92969 c 2.8892,0.59472 5.8389,1.08619 8.8496,1.48437 z m 839.51368,0.004 c -2.0619,1.01961 -4.0677,2.1637 -6.0039,3.45703 l 22.4843,38.94336 c 2.7733,0.1376 5.5948,0.35758 8.5118,0.88672 z m -193.7246,0.20899 c -1.2131,0.55669 -2.414,1.12554 -3.5801,1.74218 l 20.2871,35.13868 c 0.8823,-1.10342 1.8448,-2.08185 2.8984,-2.92188 z m -331.23638,2.27929 27.6621,47.91407 c -1.9836,-22.32826 -11.2472,-38.516 -27.6621,-47.91407 z m -104.9355,3.61328 c -0.6319,0.29169 -1.304,0.55359 -1.9238,0.85352 l 6.6347,19.4082 8.0742,13.98438 c 1.9886,-0.66143 3.966,-1.29518 5.9122,-1.86133 z m 424.82808,0.67774 c -3.3562,2.40081 -6.4675,5.06962 -9.291,8.02734 l 38.6641,66.96875 h 13.9277 l -16.0938,-27.87304 h -5.3359 c 0.3111,-2.49762 0.8066,-4.731 1.3867,-6.8418 z m -152.707,0.86523 v 16.11719 l 6.7285,11.6543 h 9.3066 z m 344.539,1.5586 c -2.7027,2.53259 -5.2232,5.34316 -7.5019,8.45508 l 16.9082,29.2832 c 3.2047,-1.76311 6.5442,-3.19013 10.1035,-3.94727 z m -727.56438,9.7832 24.7324,42.83789 h 4.4356 l -24.7325,-42.83799 z m 14.9844,0 58.8769,101.97656 c 2.8537,-1.9649 5.6343,-4.08219 8.3574,-6.3164 l -55.2304,-95.66026 z m 22.5566,0 46.207,80.03125 v -11.73643 l -39.4296,-68.29492 z m 17.3281,0 28.8789,50.01953 v -14.01377 l -20.7871,-36.00586 z m 18.6407,0 10.2382,17.73242 v -17.72656 l -0.004,-0.006 z m 602.04488,3.23438 v 13.29687 l 50.7597,87.91992 v -13.29697 z m -779.94528,0.0586 c -0.3613,2.46351 -0.721,4.92595 -0.9297,7.46484 l 60.2578,104.36914 c 2.1472,0.85436 4.3555,1.61987 6.5957,2.34766 z m 624.64448,0.0898 c -1.1616,1.652 -2.2444,3.36737 -3.2637,5.13867 l 66.2481,114.7461 c 2.0873,0.11434 4.1959,0.20092 6.3554,0.21875 z m -528.04878,1.38867 v 14.19141 l 13.7851,23.875 h 8.1934 z m 271.6953,8.91797 v 2.74024 h 1.582 z m 248.28318,4.78516 c -1.0107,2.64291 -1.8456,5.40719 -2.5762,8.24023 l 54.2422,93.94922 c 2.6619,0.60958 5.4031,1.12834 8.2266,1.54492 z m -225.39648,1.52141 v 15.06055 l 48.11918,83.3457 v -15.06054 z m -93.998,7.73438 c 0.7973,1.91706 1.373,3.96427 1.4707,6.28125 -1.3022,0.0298 -2.3731,0.15507 -3.6446,0.19726 l 49.8711,86.38086 h 3.4629 v -4.24609 z m 213.12098,0.56445 v 16.11719 l 43.9805,76.17773 h 4.1387 v -8.95117 z m -511.36708,0.50196 c 0.3699,6.10345 1.1734,11.97802 2.4004,17.61523 l 29.7832,51.58398 c 4.1661,3.6508 8.6363,6.99409 13.4902,9.91016 z m 285.8398,5.96289 c -3.1175,0.20341 -6.3021,0.38259 -9.2109,0.67382 l 14.1543,24.51758 c 2.958,-0.22713 5.5282,-0.54489 9.0371,-0.65039 v 16.30274 l 25.9726,44.98632 h 9.6016 z m 495.17188,0.0449 v 11.69922 l 42.3789,73.40234 -1.1836,0.68359 h 6.9082 l -1.7266,-2.99218 1.0684,-0.61524 z m -102.0645,0.11133 16.0918,27.87304 h 4.586 l -16.0918,-27.87304 z m 15.1348,0 16.0918,27.87304 h 6.0117 l -16.0937,-27.87304 z m -427.25198,1.81836 c -3.5281,0.52667 -7.1082,1.03301 -10.2773,1.71874 l 14.4961,25.10547 c 2.5254,-1.09632 5.7776,-1.96003 9.7539,-2.62109 z m -169.1679,0.50781 v 5.5957 h 3.2304 z m 149.6914,3.55469 c -2.0439,0.62 -3.9745,1.29288 -5.8321,2 l 44.4434,76.97656 c 1.9297,-0.7005 3.797,-1.49971 5.6016,-2.40039 l -19.211,-33.27344 c -5.3153,-2.09379 -8.625,-6.14543 -8.625,-11.33399 0,-1.00637 0.1812,-1.92751 0.461,-2.80664 z m 365.29288,0.004 c -0.2273,2.67274 -0.3457,5.40449 -0.3457,8.19727 0,1.92738 0.1374,3.77488 0.2461,5.63867 l 32.67,56.58789 c 3.4856,2.06432 7.2371,3.86291 11.2187,5.42187 z m -379.48818,5.78125 c -1.7082,0.93303 -3.3134,1.9159 -4.8028,2.95703 l 42.4981,73.60938 c 2.0585,-0.19901 4.0735,-0.46853 6.0273,-0.83789 z m 159.0859,6.74797 v 11.68164 l 32.08788,55.57812 h 6.7441 z m -251.4512,0.19336 v 7.67968 l 27.4239,47.5 c 1.1279,-0.60777 2.2828,-1.15928 3.3925,-1.80468 z m 80.5703,2.18164 c -2.2554,2.5401 -4.0614,5.31456 -5.4277,8.32812 l 33.502,58.02344 c 3.4556,0.68161 7.1039,1.10056 10.955,1.25 z m 290.00388,6.98437 v 10.91211 l 27.129,46.98828 h 6.2988 z m 269.6446,2.0918 v 22.07422 l 19.4765,33.73437 h 12.7442 z m -642.98628,9.90234 c -2.0969,0.93413 -4.3617,1.73743 -6.8008,2.41016 l 22.1445,38.35742 c 2.2437,-0.83397 4.4641,-1.71732 6.6445,-2.68164 z m 74.8339,2.29297 c -0.069,1.03621 -0.1816,2.04668 -0.1816,3.12305 0,5.3155 0.8543,10.24342 2.4141,14.75781 l 7.0058,12.13281 c 3.7645,4.48853 8.5959,8.13589 14.3652,10.86719 z m -116.873,0.64453 25.9922,45.01953 c 1.4666,-0.1522 2.9239,-0.32516 4.3691,-0.52148 l -25.1055,-43.48242 c -1.798,-0.27001 -3.5439,-0.61618 -5.2558,-1.01563 z m 25.7617,1.33789 c -2.9101,0.33727 -5.9312,0.55469 -9.123,0.55469 -0.1134,0 -0.219,-0.0132 -0.3321,-0.0137 l 23.6387,40.94141 c 2.8934,-0.61214 5.7452,-1.30804 8.5469,-2.10938 z m 617.59958,0.84766 c -0.7996,0.27303 -1.5784,0.46191 -2.373,0.7168 l 5.955,10.31445 z m -57.7129,2.16016 23.7539,41.14453 c 4.3488,-0.26783 8.7265,-0.72536 13.1387,-1.36524 l -20.8184,-36.05859 c -6.2237,-0.47599 -11.5477,-1.72225 -16.0742,-3.7207 z m -388.19138,0.86328 c -3.0456,1.41036 -6.324,2.30118 -9.7597,2.61328 l 15.6835,27.16406 c 2.6351,-1.96882 5.0992,-4.20644 7.3926,-6.71094 z m 434.44338,0.22656 c -1.7824,0.42269 -3.5645,0.84186 -5.336,1.16992 l 18.8321,32.61719 c 1.7119,-0.4854 3.4216,-0.9878 5.1308,-1.52539 z m -335.64258,0.22852 v 23.10156 l 8.1992,14.20312 h 13.3399 z m 320.54488,2.30468 c -1.4861,0.12942 -2.9822,0.13281 -4.4726,0.19532 l 19.7949,34.28711 c 1.3595,-0.27681 2.7189,-0.56633 4.0801,-0.87696 z m -201.4219,6.28321 v 16.71679 l 6.9278,12 h 9.6523 z m 269.6446,13.25781 v 7.76953 l 4.4394,7.68945 h 4.4864 z m -471.90818,4.82422 3.6269,10.63476 h 2.5137 z m -36.6328,34.27148 c -3.2874,1.12803 -5.3679,3.92177 -5.7969,7.68555 l 5.8867,10.19526 c 1.0433,0.3464 2.1516,0.6036 3.3906,0.6036 2.4193,0 4.4034,-0.8205 6,-2.06449 z m 168.12118,1.01367 v 3.51172 l 16.3202,28.26762 v -11.6817 l -11.6034,-20.09764 z m 15.2655,0 1.0547,1.82618 v -1.82618 z m -220.23238,3.45704 c -2.2393,0.0705 -4.3598,0.3075 -6.3809,0.68554 l 8.0234,13.89646 c 2.3419,0.053 4.7489,0.2097 7.1153,0.5879 z m 11.0234,0.81835 7.0195,12.15825 3.043,-8.74614 -0.3262,-0.56445 c -2.8973,-1.24948 -6.2373,-2.20825 -9.7363,-2.84766 z m -222.5977,0.0449 13.5332,23.44135 v -2.7148 l -11.9668,-20.72652 z m 12.1192,0 1.414,2.44922 v -2.44922 z m 184.1972,2.72265 c -3.364,1.74504 -6.0307,4.11001 -8.0117,6.91797 l 17.9707,31.12503 c 5.9084,1.6023 11.0645,3.1152 11.0645,7.041 0,2.1405 -1.502,3.5793 -4.5254,4.2851 l 7.7324,13.3946 c 3.6219,-1.2792 6.5657,-3.1392 8.8301,-5.5 l -20.6504,-35.7676 c -3.8782,-1.1543 -6.8418,-2.5616 -6.8418,-5.4043 0,-1.3401 0.7487,-2.3602 1.8789,-3.1933 z m -64.1328,3.32422 15.2969,26.49608 h 9.7656 l -7.4804,-12.959 h -2.9864 v -5.1718 l -4.83,-8.36528 z m -135.3554,6.73628 v 15.5938 l 14.8867,25.7832 c 1.1688,-3.1424 1.8183,-6.753 1.8183,-10.8652 v -1.5782 z m 419.71298,4.6817 v 23.1015 l 15.4842,26.8204 c 0.023,0 0.043,0 0.066,0 3.552,0 7.2969,-0.6723 10.4649,-1.8243 l -1.877,-6.291 -2.582,-4.4746 c -0.4989,0.071 -1.0861,0.2071 -1.3965,0.2071 -2.496,0 -3.8398,-1.5358 -3.8398,-4.5118 v -4.7636 z m -315.07238,1.1582 c -0.0546,0 -0.0999,0.01 -0.1543,0.01 l 7.5879,13.1445 c 1.922,0.3024 3.8923,0.6582 5.9101,1.1524 l 2.2325,-8.459 -2.4668,-4.2735 c -4.0831,-0.9225 -8.6714,-1.5722 -13.1094,-1.5722 z m 285.1191,0 c -0.9003,0 -1.7304,0.1591 -2.58,0.2734 l 20.72458,35.8946 c 1.6117,-3.4666 2.5889,-7.4342 2.6504,-11.8125 l -13.1758,-22.8223 c -2.3356,-0.9572 -4.87488,-1.5332 -7.61918,-1.5332 z m 83.08598,0.053 c -1.7591,0.034 -3.4523,0.1889 -5.0586,0.4922 l 6.9746,12.08 c 2.7749,0.9084 4.375,3.4072 4.375,7.3438 h -0.1348 l 5.2637,9.1191 h 5.3437 z m -137.99808,0.332 c -0.725,0 -1.3966,0.1612 -2.0996,0.2305 l 18.9961,32.9023 v -12.7812 c 0,-1.5214 -0.1019,-2.9548 -0.2734,-4.3223 l -7.9492,-13.7676 c -2.43,-1.4327 -5.3017,-2.2617 -8.6739,-2.2617 z m -34.3398,0.4551 c -2.0406,0.4299 -3.9094,1.2578 -5.6719,2.2793 l 7.1914,12.4551 c 1.693,0.8647 2.6325,2.5771 2.9453,5.1015 l 15.7754,27.3242 h 1.0449 v -10.2929 z m -273.2442,0.1211 v 1.1523 l 25.3711,43.9434 c 1.9245,-1.0902 3.7224,-2.4416 5.252,-4.2188 l 2.5937,6.1621 h 8.5098 l -13.1172,-22.7207 v 6.4668 c -1.7638,1.5096 -3.7615,2.4297 -6.0488,2.4297 -6.048,0 -5.9512,-5.8554 -5.9512,-7.7754 v -21.9043 l -2.041,-3.5351 z m 28.6094,0 v 6.0469 l 16.6074,28.7656 v -13.457 l -12.33,-21.3554 z m 14.8281,0 1.7793,3.0801 v -3.0801 z m 57.2481,0 27.4883,47.6113 c 1.4103,-0.1056 2.8439,-0.2947 4.3379,-0.5762 l -7.4688,-12.9355 c -1.3243,-0.8571 -2.1146,-2.179 -2.2559,-3.9082 l -17.4316,-30.1914 z m 127.7949,0 7.584,13.1367 v -13.1367 z m 20.7871,0 15.3086,26.5156 v -10.168 c 0.1501,-0.1228 0.324,-0.1669 0.4766,-0.2812 l -9.2754,-16.0664 z m 93.0293,0 8.9668,15.5273 c 1.5329,-1.5728 3.6187,-2.4594 5.9766,-2.5742 l -5.8535,-10.1387 c -0.9854,0.7869 -1.8986,1.6808 -2.7266,2.6856 l -2.291,-5.5 z m -274.9629,0.1953 c -2.4973,0.6501 -4.636,1.5719 -6.3945,2.7637 l 15.709,27.209 c 1.6435,0.4793 2.8398,1.0979 2.8398,2.2793 0,0.536 -0.284,1.0003 -0.7051,1.4199 l 7.0059,12.1328 c 2.3706,-0.9114 4.3339,-2.1328 5.8887,-3.6426 l -14.5742,-25.2421 c -3.5033,-0.6217 -6.3516,-1.2834 -6.3516,-3.0039 0,-1.0774 1.3806,-1.7182 3.3887,-2.127 z m 216.9805,0.582 10.1211,17.5313 c -0.0402,-0.5887 -0.0584,-1.1963 -0.1113,-1.7735 2.0623,-1.7582 4.3421,-2.7109 7.0214,-2.7109 0.7529,0 1.3352,0.1761 1.9512,0.3164 l -6.6016,-11.4375 c -1.859,1.2152 -3.5897,2.6519 -5.0097,4.5156 -1.7153,-3.0604 -4.2525,-5.1694 -7.3711,-6.4414 z m 173.33198,0.9395 9.7012,16.8047 c -0.5614,-7.9246 -3.9498,-13.7003 -9.7012,-16.8047 z m -297.11328,0.2383 c 0.077,7.2641 3.5592,11.4884 8.2247,14.2461 z m 58.9239,0.6875 v 14.0156 l 16.6074,28.7656 v -14.0156 z m 212.42578,0.25 c -2.2204,1.4099 -4.0595,3.2461 -5.6192,5.33 l 22.9492,39.75 c 2.7099,-0.018 5.4795,-0.2594 8.2735,-0.7324 l -6.6934,-11.5937 c -6.5628,-0.1635 -10.5615,-2.4293 -12.1348,-7.5196 h 7.793 l -5.2656,-9.1191 h -3.1367 c 0.1812,-1.4545 0.5393,-2.6531 0.998,-3.7051 z m -96.55468,3.3086 v 10.2421 l 16.4121,28.4278 c 2.1512,1.5233 4.7026,2.3849 7.5039,2.7539 z m -137.9571,2.2168 12.9121,22.3652 c 0.2786,-1.454 0.4375,-2.9751 0.4375,-4.5762 0,-10.6636 -6.2968,-15.1581 -13.3496,-17.789 z m -142.1074,2.9882 c -0.2233,1.0927 -0.3516,2.244 -0.3516,3.4727 0,7.7356 4.5037,10.923 9.629,12.5937 z m 192.7051,4.6211 v 17.7266 l 7.6699,13.2851 h 8.9375 v -2.246 z m 173.88078,2.8203 c -0.243,1.5292 -0.4082,3.1055 -0.4082,4.7676 0,3.2057 0.5595,6.0795 1.4512,8.7227 l 4.2363,7.3379 c 2.6934,3.0308 6.2245,5.3517 10.6309,6.7304 z m -421.84958,0.5821 v 2.7148 l 14.627,25.336 c 0.4725,0.037 0.9175,0.1347 1.4062,0.1347 0.0779,0 0.149,-0.023 0.2266,-0.023 z m 89.9532,1.6679 5.8906,10.2032 c -0.1995,-5.1865 -2.6548,-8.212 -5.8906,-10.2032 z m 217.9199,0.9668 v 19.5176 l 3.1504,5.457 h 11.2676 z m -335.3945,4.5528 c -0.5596,4.0679 -2.8428,6.279 -6.8672,6.5625 l 7.9961,13.8515 c 3.2198,-0.8252 5.9805,-2.2204 8.2578,-4.1543 z m 393.42178,1.3359 c -0.72118,2.6589 -2.16898,4.564 -4.27928,5.5137 l 7.51568,13.0215 c 2.0225,-0.8057 3.88,-1.9135 5.5488,-3.3203 z m -259.53118,0.168 v 2.0215 c 0,8.1818 3.7592,13.8475 10.5742,16.2929 z m 67.0273,3.7949 9.2637,16.0469 c 0.2003,0 0.4058,0.037 0.6055,0.037 1.3133,0 2.4932,-0.1385 3.7187,-0.2305 l -8.8301,-15.293 c -1.5991,-0.1749 -3.1064,-0.2278 -4.7578,-0.5605 z m -10.4453,0.1816 -3.0254,8.9493 1.4082,2.4394 c 3.0918,1.2544 6.4486,2.3443 9.9961,3.1231 z m 300.05668,1.5977 c -0.8239,0.2813 -1.6162,0.4104 -2.4258,0.6328 l 6.0136,10.416 z m -507.60548,0.076 -3.8828,10.7715 c 3.4531,1.8835 7.5699,2.7966 11.916,3.1406 z m 107.7031,0.293 7.9063,13.6933 c 0.8805,0.043 1.7484,0.2422 2.6211,0.2422 0.9434,0 1.787,-0.093 2.6757,-0.1445 l -7.3672,-12.7578 c -1.9214,-0.2246 -3.7624,-0.5355 -5.8359,-1.0332 z m 272.2227,0.6523 v 16.6289 l 9.541,16.5254 h 6.2988 v -5.7187 z m -115.8711,0.2168 v 11.7383 l 0.2129,0.3672 h 6.7753 z m 58.4629,3.4199 v 8.6856 h 5.0156 z m -222.2032,1.1875 -1.4765,4.9063 c 1.6104,0.6614 3.4163,1.2134 5.2949,1.707 z" />
    <path
       d="m 680.0764,301.42323 c 32.27499,0 59.85543,-9.6825 82.74134,-29.04749 v -94.4777 h -91.54361 v 42.83771 h 43.13112 v 54.57408 l 7.62863,-29.63431 c -6.7484,7.33522 -19.6584,11.73636 -35.79589,11.73636 -36.67613,0 -59.56203,-23.76613 -59.56203,-62.49612 0,-37.84976 22.00568,-58.09498 63.37634,-58.09498 17.31114,0 37.55636,3.2275 51.05317,7.92204 L 755.1891,104.8392 c -17.31113,-8.21545 -40.49044,-12.91 -63.66975,-12.91 -72.17861,0 -118.24383,43.42453 -118.24383,107.09429 0,61.32248 42.83772,102.39974 106.80088,102.39974 z m 206.26639,-2.93409 h 36.67612 v -79.80725 c 0,-43.42453 -24.05954,-66.89725 -71.00498,-66.89725 -22.29908,0 -45.7718,5.28136 -63.96316,14.08363 l 11.73636,34.32885 c 14.96386,-5.28136 28.75408,-7.92204 41.37067,-7.92204 20.53863,0 32.27499,7.04182 32.27499,20.53863 v 47.82567 z m -49.29272,2.93409 c 29.0475,0 48.99931,-14.96386 58.6818,-45.4784 l -15.55067,-6.7484 c -5.28136,8.80227 -14.96386,14.37704 -25.52659,14.37704 -10.26931,0 -17.31113,-5.28137 -17.31113,-12.91 0,-9.97591 12.32318,-13.79022 45.18499,-13.79022 v -25.23318 c -66.31043,0 -96.23815,14.37704 -96.23815,46.35863 0,26.1134 19.6584,43.42453 50.75975,43.42453 z m 128.80635,-2.93409 h 48.11908 V 140.04828 c 0,-12.32318 8.2154,-19.6584 22.8859,-19.6584 7.0418,0 15.2573,1.76045 19.0716,3.81431 l 9.9759,-36.0893 c -9.0957,-5.86818 -22.5925,-9.38909 -36.3827,-9.38909 -38.1432,0 -63.66978,25.81999 -63.66978,64.84339 z m -22.8859,-104.1602 H 1052.1187 V 154.71873 H 942.97052 Z m 142.00998,104.1602 h 48.1191 V 140.04828 c 0,-12.32318 8.2154,-19.6584 22.8859,-19.6584 7.0418,0 15.2573,1.76045 19.0716,3.81431 l 9.9759,-36.0893 c -9.0957,-5.86818 -22.5925,-9.38909 -36.3827,-9.38909 -38.1432,0 -63.6698,25.81999 -63.6698,64.84339 z m -22.8859,-104.1602 h 109.1482 v -39.61021 h -109.1482 z m 207.7336,107.09429 c 17.6046,0 36.0893,-3.2275 54.2807,-9.38909 l -11.1496,-34.32885 c -12.0297,4.10772 -23.4727,6.16159 -35.209,6.16159 -28.4607,0 -41.6641,-12.32318 -41.6641,-41.95749 0,-21.71227 7.6286,-32.86181 22.0057,-32.86181 13.2034,0 20.832,8.50886 20.832,23.76613 h -48.9993 v 27.87385 h 94.7711 c 1.1736,-7.33522 2.0539,-14.67045 2.0539,-22.29908 0,-41.95749 -24.0596,-66.60384 -65.1368,-66.60384 -45.4784,0 -75.6996,29.92772 -75.6996,75.1127 0,46.35862 31.6882,74.52589 83.915,74.52589 z m 84.7951,-2.93409 h 50.7597 v -87.72929 l -11.1495,-56.04112 h -39.6102 z m 41.6641,-71.00498 c 7.922,-16.72431 21.7122,-26.40681 37.5563,-26.40681 6.455,0 14.6705,1.46704 20.5386,3.52091 l 11.443,-46.35862 c -5.8682,-2.93409 -14.6705,-4.69455 -23.4727,-4.69455 -18.4848,0 -35.5025,9.97591 -46.0652,26.99363 z"
       id="text1"
       style="font-weight:800;font-size:293.409px;font-family:Cantarell;-inkscape-font-specification:'Cantarell Ultra-Bold';letter-spacing:0px;fill:#ffffff;stroke-width:1.52817"
       aria-label="Gaffer" />
    <path
       d="m 588.05953,395.04253 c 14.688,0 23.136,-8.928 23.136,-24.288 v -43.29601 h -16.704 v 44.25601 c 0,5.76 -2.688,8.64 -7.968,8.64 -2.688,0 -6.048,-0.768 -8.544,-1.824 l -4.704,13.056 c 4.224,2.304 9.312,3.456 14.784,3.456 z m 49.72805,-0.384 c 6.432,0 12.096,-2.976 15.936,-8.448 l -1.824,-9.888 c -2.112,2.4 -4.608,3.936 -7.584,3.936 -6.048,0 -5.952,-5.856 -5.952,-7.776 v -25.44001 h -16.608 v 29.18401 c 0,11.328 6.528,18.432 16.032,18.432 z m 17.184,-0.576 h 12 v -47.04001 h -16.608 v 36.09601 z m 40.41596,0.96 c 14.208,0 22.272,-5.856 22.272,-16.032 0,-17.95201 -25.152,-12.48 -25.152,-17.85601 0,-1.632 2.304,-2.592 6.912,-2.592 3.744,0 8.352,0.672 13.056,1.824 l 3.168,-12 c -4.608,-1.44 -10.848,-2.304 -16.512,-2.304 -14.592,0 -22.464,5.568 -22.464,15.84 0,18.14401 24.576,11.80801 24.576,17.56801 0,1.824 -2.592,3.072 -6.72,3.072 -4.128,0 -10.08,-1.152 -14.976,-2.88 l -3.552,11.808 c 5.376,2.208 12.576,3.552 19.392,3.552 z m 51.84,-0.192 c 3.264,0 6.912,-0.48 10.656,-1.536 l -3.168,-11.712 c -1.248,0.48 -2.592,0.672 -3.84,0.672 -4.032,0 -6.432,-2.112 -6.432,-5.568 v -43.20001 h -16.32 v 43.68001 c 0,11.136 6.912,17.664 19.104,17.664 z m -25.824,-34.84801 h 33.888 v -12.96 h -33.888 z m 83.61614,35.04001 c 17.664,0 27.456,-8.448 27.456,-21.792 0,-24.48001 -32.928,-17.08801 -32.928,-26.97601 0,-3.36 3.744,-5.184 10.272,-5.184 5.376,0 11.328,0.96 16.032,2.592 l 4.608,-13.248 c -5.568,-2.496 -12.96,-3.936 -19.776,-3.936 -16.896,0 -28.416,8.832 -28.416,22.272 0,22.65601 32.736,16.22401 32.736,26.49601 0,3.072 -2.88,4.8 -9.312,4.8 -6.048,0 -13.344,-1.152 -19.968,-3.936 l -4.608,13.632 c 6.816,3.072 15.648,5.28 23.904,5.28 z m 36.19204,-0.96 h 16.608 v -47.04001 h -16.608 z m 8.352,-53.47201 c 5.664,0 9.504,-3.84 9.504,-9.504 0,-5.76 -3.84,-9.6 -9.504,-9.6 -5.664,0 -9.504,3.84 -9.504,9.6 0,5.664 3.84,9.504 9.504,9.504 z m 80.06409,53.47201 h 16.608 v -27.264 c 0,-12.86401 -6.24,-20.35201 -16.896,-20.35201 -6.72,0 -12.576,2.976 -16.416,8.448 l 1.824,9.88801 c 2.4,-2.592 5.088,-3.93601 8.352,-3.93601 4.512,0 6.528,2.49601 6.528,7.77601 z m -59.904,0 h 16.608 v -36.09601 l -4.608,-10.944 h -12 z m 29.952,0 h 16.608 v -27.264 c 0,-12.86401 -6.24,-20.35201 -16.896,-20.35201 -6.72,0 -12.576,2.976 -16.416,8.448 l 1.824,9.88801 c 2.4,-2.592 5.088,-3.93601 8.352,-3.93601 4.512,0 6.528,2.49601 6.528,7.77601 z m 83.71198,0.96 c 12.384,0 21.69601,-10.656 21.69601,-25.056 0,-13.92001 -8.73601,-23.90401 -20.83201,-23.90401 -8.064,0 -14.208,4.608 -17.28,12.288 l 4.416,6.43201 c 1.536,-3.07201 4.512,-4.89601 8.064,-4.89601 5.376,0 8.736,4.03201 8.736,10.94401 0,6.528 -3.072,10.368 -8.352,10.368 -3.456,0 -6.432,-1.728 -8.16,-4.608 l -3.744,9.024 c 3.168,5.952 8.544,9.408 15.456,9.408 z m -26.304,19.872 h 15.84 v -56.35201 l -4.8,-11.52 h -11.04 z m 72.67191,-20.064 c 3.552,0 7.296,-0.672 10.464,-1.824 l -3.264,-10.944 c -0.96,0.288 -2.016,0.384 -2.592,0.384 -2.496,0 -3.84,-1.536 -3.84,-4.512 v -54.81601 h -16.32 v 56.83201 c 0,9.504 5.664,14.88 15.552,14.88 z m 40.896,0.192 c 5.76,0 11.808,-1.056 17.76,-3.072 l -3.648,-11.232 c -3.936,1.344 -7.68,2.016 -11.52,2.016 -9.312,0 -13.632,-4.032 -13.632,-13.728 0,-7.10401 2.496,-10.75201 7.2,-10.75201 4.32,0 6.816,2.784 6.816,7.77601 h -16.032 v 9.12 h 31.008 c 0.384,-2.4 0.672,-4.8 0.672,-7.296 0,-13.72801 -7.872,-21.79201 -21.312,-21.79201 -14.88,0 -24.768,9.792 -24.768,24.57601 0,15.168 10.368,24.384 27.456,24.384 z"
       id="text3"
       style="font-weight:800;font-size:96px;font-family:Cantarell;-inkscape-font-specification:'Cantarell Ultra-Bold';letter-spacing:0px;fill:#ffffff"
       aria-label="Just Simple" />
  </g>
</svg>
